<svg xmlns="http://www.w3.org/2000/svg" width="141.281" height="29" viewBox="0 0 141.281 29">
  <defs>
    <style>
      .cls-1 {
        fill: #fff;
        fill-rule: evenodd;
      }
    </style>
  </defs>
  <path id="ic_bd_logo" class="cls-1" d="M111.843,154.172h-3.892v16.794h4.057c2.579,0,3.916-1.392,3.916-3.983v-1.367c0-1.776-.54-3.047-1.923-3.6,1.149-.552,1.665-1.655,1.665-3.383v-0.6C115.666,155.443,114.517,154.172,111.843,154.172Zm-0.164,9.237c1.173,0,1.665.479,1.665,2.039v1.463c0,1.248-.469,1.656-1.336,1.656H110.53v-5.158h1.149Zm0.094-6.838c0.915,0,1.313.528,1.313,1.727v0.936c0,1.344-.586,1.775-1.547,1.775H110.53v-4.438h1.243Zm6.635,14.4h2.58V154.172h-2.58v16.794Zm5.393,0h4.08c2.58,0,3.846-1.464,3.846-4.151v-8.493c0-2.687-1.266-4.15-3.846-4.15H123.8v16.794Zm4.033-14.4c0.821,0,1.314.432,1.314,1.631v8.733c0,1.2-.493,1.632-1.314,1.632H126.38v-12h1.454Zm6.354-2.4v12.787c0,2.687,1.313,4.223,3.846,4.223s3.846-1.536,3.846-4.223V154.172h-2.439v12.955c0,1.2-.516,1.632-1.337,1.632s-1.336-.432-1.336-1.632V154.172h-2.58Zm10.059,4.03c0,4.8,5.042,5.447,5.042,8.9,0,1.2-.516,1.632-1.337,1.632s-1.336-.432-1.336-1.632v-1.2h-2.439v1.031c0,2.687,1.313,4.223,3.846,4.223s3.845-1.536,3.845-4.223c0-4.8-5.041-5.446-5.041-8.9,0-1.2.469-1.656,1.289-1.656s1.29,0.456,1.29,1.656v0.695h2.439V158.2c0-2.687-1.29-4.222-3.8-4.222S144.247,155.515,144.247,158.2Zm12.439-4.03v16.794H160.3c2.533,0,3.635-1.7,3.635-4.175v-8.445c0-2.471-1.1-4.174-3.635-4.174h-3.611Zm1.079,15.786V155.18h2.509c1.805,0,2.579,1.271,2.579,3.118v8.541c0,1.848-.75,3.119-2.579,3.119h-2.509Zm8.886-15.786v16.794h1.079V154.172h-1.079Zm7.363-.144c-2.509,0-3.541,1.823-3.541,4.246v8.589c0,2.424,1.032,4.247,3.541,4.247s3.541-1.823,3.541-4.247v-4.558h-3.213v1.008h2.181v3.622c0,1.8-.68,3.143-2.486,3.143s-2.485-1.343-2.485-3.143V158.2c0-1.8.68-3.166,2.485-3.166s2.486,1.367,2.486,3.166v1.32h1.032v-1.248C177.555,155.851,176.523,154.028,174.014,154.028Zm6.283,0.144v16.794h1.079V154.172H180.3Zm7.809,16.794V155.18h3.329v-1.008h-7.761v1.008h3.353v15.786h1.079Zm11.466-3.719,0.82,3.719h1.079l-3.658-16.818h-1.571l-3.588,16.818h0.985l0.821-3.719h5.112Zm-2.58-11.828,2.415,10.869h-4.783Zm13.3,15.547v-1.008h-5.159V154.172h-1.079v16.794h6.238ZM96.839,157.837a17.911,17.911,0,0,1,.582,2.06,14.458,14.458,0,0,1,.249,4.152,14.9,14.9,0,0,1-2.435,6.933A13.109,13.109,0,0,1,85.608,177a8.409,8.409,0,0,0,5.038-5.136,11.771,11.771,0,0,1-5.879,4.21,11.415,11.415,0,0,1-7.433-.356,13.685,13.685,0,0,1-6.19-4.9,12.99,12.99,0,0,0,5,1.784,8.172,8.172,0,0,0,.963.077c0.176,0,.352,0,0.528-0.012a0.418,0.418,0,0,1,.262.02,0.83,0.83,0,0,1-.078-0.043,3.839,3.839,0,0,0,.783-0.232c-3.783-.37-7.757-2.5-9.1-6.327-0.68-1.865.816,2.325,0,0a10.387,10.387,0,0,1-.166-5.831,8.035,8.035,0,0,0,.928,3.089,4.536,4.536,0,0,0,2.348,2.233,1,1,0,0,1-.1-0.305c-0.007.02-.024,0.037-0.032,0.056a11.329,11.329,0,0,1-2.311-6.574,8.633,8.633,0,0,1,2.651-5.846,11.532,11.532,0,0,0-.192,2.585,3.306,3.306,0,0,0,.767,2.309,7.716,7.716,0,0,1,1.638-6.871A9.753,9.753,0,0,1,81.285,148a14.611,14.611,0,0,0-2.4,1.217,4.8,4.8,0,0,0-1,.885,3.636,3.636,0,0,0-.4.583,3.131,3.131,0,0,0-.273.828,6.632,6.632,0,0,1,1.427-1.349,7.551,7.551,0,0,1,1.746-.822,14.424,14.424,0,0,1,4.132-.673,10.906,10.906,0,0,1,4.03.615,13.349,13.349,0,0,1,3.508,1.85,17.253,17.253,0,0,1,1.622,1.449c-0.107-.1-0.213-0.2-0.321-0.3,0.113,0.12.224,0.242,0.33,0.368a10.479,10.479,0,0,0-7.1-3.1,10.6,10.6,0,0,0-7.378,2.708,11.028,11.028,0,0,0-3.613,8.452,9.129,9.129,0,0,1,1.544-2.792,9.272,9.272,0,0,1,.652-0.74,1,1,0,0,1,.309-0.26,2.568,2.568,0,0,0-.857,0,6.154,6.154,0,0,1,3.291-2.535c1.278-.4.937-0.224,0.81-0.305A0.937,0.937,0,0,0,80.974,154a1.16,1.16,0,0,1,.872-0.074,9.778,9.778,0,0,1,2.107.262,11.049,11.049,0,0,1,3.629,1.678,8.487,8.487,0,0,1,1.463,1.258,9.061,9.061,0,0,1,1.161,1.686,24.631,24.631,0,0,1,1.726,3.935c0.114,0.329.221,0.66,0.315,1,0.046,0.164.089,0.328,0.127,0.494a0.571,0.571,0,0,1,.019.455,3.378,3.378,0,0,1-1.413,1.237,2.931,2.931,0,0,1-1.874-.226q-1.052-.31-2.077-0.7a12.121,12.121,0,0,1-1.856-.8,6.2,6.2,0,0,1-1.451-1.214,7.025,7.025,0,0,1-1.736-3.4,3.552,3.552,0,0,1-.047-0.767A7.9,7.9,0,0,0,83.567,165a7.487,7.487,0,0,0,10.975.812,7.807,7.807,0,0,0,1.807-2.526,5.487,5.487,0,0,0,.474-1.633s0.386-3.294-.636-5.225A9.928,9.928,0,0,1,96.839,157.837Zm-8.375,1.994a0.8,0.8,0,0,0,.23.808,0.455,0.455,0,0,0,.307.014q0.1-.069.1,0.051a2.073,2.073,0,0,1,.056.222,1.1,1.1,0,0,1-.111.793,1.8,1.8,0,0,0,.091-1.94,1.569,1.569,0,0,0-1.351-1.145,1.4,1.4,0,0,1,.683,1.2h0Zm0.007-.076c0-.045.007-0.082,0.008-0.1C88.478,159.671,88.475,159.7,88.47,159.755Zm1.85-.769s-2.879-5.65-7.686-6.995c-2.078-.581,1.15.044,1.155,1.94,0,0.877-1.156,1.62-1.687,1.841m5.119-.829s-2.1-2.752-6.894-1.267c-1.864.577,1.095-.078,1.56,1.029,0.305,0.725-.426,1.983-0.787,2.45" transform="translate(-69 -148)"/>
</svg>
