<svg xmlns="http://www.w3.org/2000/svg" width="17.969" height="18" viewBox="0 0 17.969 18">
  <defs>
    <style>
      .cls-1 {
        fill-rule: evenodd;
      }
    </style>
  </defs>
  <path id="ic_cart" class="cls-1" d="M357.43,52.4a1.8,1.8,0,1,0,1.8,1.8A1.8,1.8,0,0,0,357.43,52.4ZM352.042,38v1.8h1.8l3.232,6.84-1.257,2.16a3.23,3.23,0,0,0-.179.9,1.8,1.8,0,0,0,1.8,1.8H368.2V49.7H357.789a0.193,0.193,0,0,1-.18-0.18V49.43l0.808-1.53h6.645a1.636,1.636,0,0,0,1.526-.9l3.232-5.85A0.5,0.5,0,0,0,370,40.7a0.849,0.849,0,0,0-.9-0.9H355.813L355.005,38h-2.963Zm14.366,14.4a1.8,1.8,0,1,0,1.8,1.8A1.8,1.8,0,0,0,366.408,52.4Z" transform="translate(-352.031 -38)"/>
</svg>
