<svg xmlns="http://www.w3.org/2000/svg" width="155.094" height="37.031" viewBox="0 0 155.094 37.031">
  <defs>
    <style>
      .cls-1 {
        fill: #fff;
        fill-rule: evenodd;
      }
    </style>
  </defs>
  <path id="ic_logo_white" class="cls-1" d="M69.472,53.176a0.669,0.669,0,1,1,.245.914,0.669,0.669,0,0,1-.245-0.914h0Zm8.043,4.645a0.669,0.669,0,1,0-.914.245,0.669,0.669,0,0,0,.914-0.245h0Zm-4.021-6.967a0.669,0.669,0,1,1-.669.669,0.669,0.669,0,0,1,.669-0.669h0Zm0,9.289a0.669,0.669,0,1,0-.669-0.669,0.669,0.669,0,0,0,.669.669h0Zm4.021-6.967a0.669,0.669,0,1,0-.245.914,0.669,0.669,0,0,0,.245-0.914h0ZM69.472,57.82a0.669,0.669,0,1,1,.914.245,0.669,0.669,0,0,1-.914-0.245h0ZM70.809,55.5a2.685,2.685,0,1,1,2.685,2.686A2.685,2.685,0,0,1,70.809,55.5h0Zm3.846-5.292a5.409,5.409,0,0,1,2.853,1.655l3.713,0.676a8.3,8.3,0,0,0-4.411-4.622l-2.155,2.29h0Zm-5.834,2.553a5.436,5.436,0,0,1,2.456-2.2l1.788-3.319A8.251,8.251,0,0,0,67.31,50l1.511,2.756h0ZM69.447,59.1a5.393,5.393,0,0,1-1.337-3.017L65.5,53.351a8.3,8.3,0,0,0,.853,6.332l3.09-.586h0Zm4.047,1.818a5.461,5.461,0,0,1-1.111-.114l-3.4,1.634a8.3,8.3,0,0,0,6.283,1.146l0.4-3.119a5.4,5.4,0,0,1-2.171.453h0ZM78.909,55.5a5.39,5.39,0,0,1-.717,2.7l0.5,3.738a8.261,8.261,0,0,0,3.03-5.623l-2.843-1.342c0.017,0.175.026,0.352,0.026,0.532h0Zm-15.13,0a9.715,9.715,0,1,1,9.715,9.717A9.716,9.716,0,0,1,63.779,55.5h0Zm-0.728,0A10.443,10.443,0,1,1,73.494,65.943,10.444,10.444,0,0,1,63.051,55.5h0ZM79.14,40.062c0.3,0.006.633-1.182,1.985-.617l0.139,0.068a1.721,1.721,0,0,0,.1-0.252,9.421,9.421,0,0,0-3.408-1.245c-0.157.408-.481,1.358-0.174,1.573a4.525,4.525,0,0,0,1.36.474h0Zm4.492,2.5c0.283,0.1.968-.929,2.079,0.027L85.822,42.7a1.7,1.7,0,0,0,.17-0.21,9.426,9.426,0,0,0-2.856-2.238c-0.275.34-.877,1.143-0.651,1.442a4.537,4.537,0,0,0,1.147.871h0Zm3.5,3.767c0.239,0.181,1.207-.584,1.968.668l0.073,0.136a1.711,1.711,0,0,0,.227-0.147,9.431,9.431,0,0,0-2.025-3.011c-0.367.238-1.187,0.816-1.065,1.17a4.537,4.537,0,0,0,.822,1.183h0ZM89.3,50.994c0.171,0.246,1.329-.182,1.666,1.244L90.99,52.39a1.742,1.742,0,0,0,.261-0.07,9.428,9.428,0,0,0-1-3.49c-0.422.114-1.381,0.409-1.374,0.784a4.535,4.535,0,0,0,.416,1.379h0Zm0.649,3.665a4.527,4.527,0,0,0-.031,1.44c0.087,0.287,1.32.237,1.2,1.7l-0.021.153a1.663,1.663,0,0,0,.27.014,9.422,9.422,0,0,0,.131-3.626c-0.436-.023-1.44-0.038-1.549.321h0ZM89.4,59.785a4.528,4.528,0,0,0-.474,1.36c-0.006.3,1.182,0.633,0.617,1.986l-0.068.139a1.724,1.724,0,0,0,.252.1,9.424,9.424,0,0,0,1.245-3.408c-0.408-.157-1.357-0.481-1.572-0.174h0Zm-2.1,4.707a4.528,4.528,0,0,0-.871,1.147c-0.1.283,0.928,0.968-.027,2.079l-0.107.111a1.7,1.7,0,0,0,.21.17,9.423,9.423,0,0,0,2.237-2.857c-0.34-.275-1.142-0.877-1.442-0.651h0Zm-3.454,3.826a4.526,4.526,0,0,0-1.183.822c-0.181.239,0.584,1.208-.668,1.969l-0.136.073a1.735,1.735,0,0,0,.147.227,9.423,9.423,0,0,0,3.01-2.025c-0.238-.367-0.816-1.187-1.17-1.065h0ZM78,71.305c-0.246.171,0.182,1.329-1.243,1.666L76.6,73a1.714,1.714,0,0,0,.07.261,9.417,9.417,0,0,0,3.489-1c-0.113-.422-0.409-1.381-0.784-1.374A4.531,4.531,0,0,0,78,71.305h0Zm-5.1.618c-0.287.087-.237,1.32-1.7,1.2L71.042,73.1a1.727,1.727,0,0,0-.014.27,9.428,9.428,0,0,0,3.626.131c0.023-.436.038-1.44-0.321-1.549a4.519,4.519,0,0,0-1.44-.031h0Zm-5.045-.99c-0.3-.006-0.633,1.182-1.985.617l-0.139-.068a1.691,1.691,0,0,0-.1.252,9.426,9.426,0,0,0,3.407,1.245c0.156-.408.481-1.358,0.174-1.573a4.529,4.529,0,0,0-1.36-.474h0Zm-4.492-2.5c-0.283-.1-0.968.929-2.078-0.027L61.165,68.3a1.717,1.717,0,0,0-.17.21,9.418,9.418,0,0,0,2.856,2.237c0.275-.34.877-1.143,0.651-1.442a4.532,4.532,0,0,0-1.147-.871h0Zm-3.5-3.767c-0.239-.181-1.208.584-1.969-0.668l-0.073-.136a1.71,1.71,0,0,0-.227.147,9.421,9.421,0,0,0,2.025,3.011c0.367-.238,1.187-0.816,1.064-1.17a4.527,4.527,0,0,0-.821-1.183h0ZM57.69,60c-0.171-.246-1.329.183-1.666-1.244L56,58.606a1.713,1.713,0,0,0-.261.069,9.423,9.423,0,0,0,1,3.489c0.422-.113,1.381-0.409,1.374-0.784A4.529,4.529,0,0,0,57.69,60h0ZM57.072,54.9c-0.087-.287-1.32-0.237-1.2-1.7l0.021-.153a1.722,1.722,0,0,0-.27-0.015,9.427,9.427,0,0,0-.131,3.627c0.437,0.023,1.44.038,1.549-.321a4.532,4.532,0,0,0,.031-1.44h0Zm0.989-5.046c0.006-.3-1.182-0.633-0.617-1.986l0.068-.139a1.707,1.707,0,0,0-.252-0.1,9.424,9.424,0,0,0-1.245,3.408c0.408,0.157,1.358.481,1.572,0.174a4.541,4.541,0,0,0,.474-1.361h0Zm2.5-4.493c0.1-.283-0.928-0.968.027-2.079l0.107-.111a1.71,1.71,0,0,0-.21-0.17,9.422,9.422,0,0,0-2.237,2.857c0.34,0.275,1.143.877,1.442,0.651a4.524,4.524,0,0,0,.871-1.147h0Zm3.766-3.5c0.181-.239-0.584-1.208.668-1.969l0.136-.073a1.7,1.7,0,0,0-.147-0.227,9.422,9.422,0,0,0-3.01,2.026c0.238,0.367.816,1.187,1.17,1.065a4.528,4.528,0,0,0,1.183-.822h0Zm4.663-2.165c0.246-.172-0.182-1.329,1.244-1.666L70.387,38a1.722,1.722,0,0,0-.07-0.261,9.419,9.419,0,0,0-3.489,1c0.113,0.422.409,1.382,0.784,1.375a4.531,4.531,0,0,0,1.379-.416h0Zm5.1-.618c0.287-.087.237-1.32,1.7-1.2l0.153,0.021a1.72,1.72,0,0,0,.014-0.27,9.417,9.417,0,0,0-3.626-.131c-0.023.437-.038,1.44,0.321,1.549a4.533,4.533,0,0,0,1.44.031h0Zm15.079,8.454q0.271,0.533.507,1.086c0.212-.069.418-0.121,0.583-0.163a0.184,0.184,0,0,1,.135.016,0.187,0.187,0,0,1,.06.053l0.078,0.074a9.163,9.163,0,0,1,1.075,3.839l0,0.045a0.183,0.183,0,0,1-.07.111,0.185,0.185,0,0,1-.071.033,1.322,1.322,0,0,1-.6.143q0.092,0.589.144,1.19c0.224,0,.437.014,0.608,0.025a0.183,0.183,0,0,1,.123.057,0.186,0.186,0,0,1,.041.069L91.837,54.2a9.163,9.163,0,0,1-.164,3.983l-0.017.042a0.183,0.183,0,0,1-.178.094,1.331,1.331,0,0,1-.615-0.05q-0.094.6-.228,1.177c0.212,0.069.41,0.148,0.568,0.211a0.182,0.182,0,0,1,.1.092,0.185,0.185,0,0,1,.018.078l0.02,0.106a9.159,9.159,0,0,1-1.386,3.738l-0.029.035a0.183,0.183,0,0,1-.2.033,1.326,1.326,0,0,1-.569-0.237q-0.273.535-.582,1.048c0.181,0.131.345,0.268,0.476,0.377a0.182,0.182,0,0,1,.066.119,0.185,0.185,0,0,1-.007.079l-0.014.107a9.161,9.161,0,0,1-2.473,3.126l-0.038.024a0.183,0.183,0,0,1-.2-0.029,1.318,1.318,0,0,1-.47-0.4q-0.424.423-.877,0.818c0.132,0.181.246,0.363,0.338,0.507a0.184,0.184,0,0,1,.026.134,0.181,0.181,0,0,1-.031.073l-0.046.1a9.155,9.155,0,0,1-3.318,2.209l-0.044.011a0.184,0.184,0,0,1-.127-0.032,0.18,0.18,0,0,1-.053-0.058,1.328,1.328,0,0,1-.321-0.526q-0.533.271-1.086,0.507c0.069,0.212.121,0.418,0.163,0.583a0.183,0.183,0,0,1-.069.2l-0.074.079a9.154,9.154,0,0,1-3.838,1.075l-0.045,0a0.183,0.183,0,0,1-.144-0.14,1.325,1.325,0,0,1-.143-0.6q-0.588.092-1.19,0.144c0,0.224-.014.437-0.025,0.608a0.185,0.185,0,0,1-.126.165l-0.094.052a9.155,9.155,0,0,1-3.982-.164l-0.042-.017a0.184,0.184,0,0,1-.093-0.178,1.325,1.325,0,0,1,.05-0.616q-0.6-.094-1.177-0.228c-0.069.213-.148,0.41-0.211,0.568a0.182,0.182,0,0,1-.17.117l-0.106.02a9.159,9.159,0,0,1-3.737-1.387l-0.035-.029a0.184,0.184,0,0,1-.034-0.2,1.33,1.33,0,0,1,.237-0.569q-0.534-.273-1.047-0.582c-0.131.181-.268,0.345-0.377,0.476a0.183,0.183,0,0,1-.2.059L63.763,71.1a9.159,9.159,0,0,1-3.125-2.474l-0.024-.038a0.185,0.185,0,0,1-.009-0.131,0.182,0.182,0,0,1,.038-0.068,1.322,1.322,0,0,1,.4-0.47q-0.423-.424-0.818-0.877c-0.181.132-.363,0.246-0.508,0.338a0.183,0.183,0,0,1-.207-0.005l-0.1-.046a9.155,9.155,0,0,1-2.208-3.319L57.2,63.971a0.183,0.183,0,0,1,.032-0.127,0.186,0.186,0,0,1,.058-0.053,1.332,1.332,0,0,1,.526-0.321q-0.271-.533-0.507-1.086c-0.212.069-.418,0.121-0.583,0.163a0.183,0.183,0,0,1-.135-0.016,0.185,0.185,0,0,1-.06-0.053L56.45,62.4a9.152,9.152,0,0,1-1.075-3.839l0-.045a0.187,0.187,0,0,1,.069-0.111,0.184,0.184,0,0,1,.071-0.033,1.327,1.327,0,0,1,.6-0.143q-0.092-.588-0.144-1.19c-0.224,0-.437-0.014-0.608-0.025a0.182,0.182,0,0,1-.123-0.057,0.184,0.184,0,0,1-.041-0.069L55.151,56.8a9.164,9.164,0,0,1,.164-3.983l0.017-.042a0.184,0.184,0,0,1,.1-0.084,0.178,0.178,0,0,1,.078-0.009,1.316,1.316,0,0,1,.615.05q0.094-.6.228-1.177c-0.212-.069-0.41-0.148-0.568-0.211a0.184,0.184,0,0,1-.117-0.171l-0.02-.106a9.16,9.16,0,0,1,1.386-3.738l0.029-.035a0.185,0.185,0,0,1,.121-0.049,0.181,0.181,0,0,1,.077.015,1.329,1.329,0,0,1,.569.237q0.273-.535.582-1.047c-0.181-.131-0.345-0.268-0.476-0.377a0.184,0.184,0,0,1-.059-0.2l0.014-.107a9.156,9.156,0,0,1,2.473-3.126l0.038-.024a0.184,0.184,0,0,1,.2.029,1.323,1.323,0,0,1,.47.4q0.424-.423.877-0.818c-0.132-.181-0.246-0.363-0.338-0.508a0.183,0.183,0,0,1,.005-0.207l0.046-.1a9.153,9.153,0,0,1,3.318-2.209l0.044-.011a0.184,0.184,0,0,1,.127.032,0.186,0.186,0,0,1,.053.058,1.327,1.327,0,0,1,.321.526q0.533-.272,1.086-0.507c-0.069-.212-0.121-0.418-0.163-0.583a0.183,0.183,0,0,1,.069-0.2l0.074-.078a9.152,9.152,0,0,1,3.838-1.075l0.045,0a0.184,0.184,0,0,1,.144.141,1.326,1.326,0,0,1,.143.6q0.589-.092,1.19-0.144c0-.224.014-0.438,0.025-0.609A0.182,0.182,0,0,1,72.1,37.2l0.094-.052a9.151,9.151,0,0,1,3.982.164l0.042,0.017a0.184,0.184,0,0,1,.093.178,1.327,1.327,0,0,1-.05.616q0.6,0.094,1.177.228c0.069-.212.148-0.41,0.211-0.568a0.183,0.183,0,0,1,.093-0.1,0.178,0.178,0,0,1,.078-0.018l0.106-.02a9.154,9.154,0,0,1,3.737,1.387L81.7,39.063a0.185,0.185,0,0,1,.049.121,0.189,0.189,0,0,1-.015.077,1.332,1.332,0,0,1-.236.569q0.534,0.273,1.047.582c0.131-.181.268-0.345,0.377-0.476a0.183,0.183,0,0,1,.119-0.067,0.185,0.185,0,0,1,.079.007l0.107,0.014a9.157,9.157,0,0,1,3.125,2.474L86.374,42.4a0.182,0.182,0,0,1,.009.131,0.186,0.186,0,0,1-.038.069,1.322,1.322,0,0,1-.4.47q0.423,0.424.818,0.877c0.181-.132.362-0.246,0.507-0.338a0.184,0.184,0,0,1,.207.005l0.1,0.046a9.159,9.159,0,0,1,2.208,3.319l0.011,0.044a0.184,0.184,0,0,1-.089.181,1.326,1.326,0,0,1-.526.321h0Zm16.143,9.93v3c0,1.5-.67,2.04-1.735,2.04s-1.736-.54-1.736-2.04V49.116c0-1.5.67-2.07,1.736-2.07s1.735,0.57,1.735,2.07v2.25h3.167v-2.04c0-3.36-1.7-5.281-4.994-5.281S98.5,45.966,98.5,49.326V60.247c0,3.36,1.705,5.281,4.993,5.281s4.994-1.92,4.994-5.281v-2.79h-3.167Zm9.468-10.171h3.806v18H122v-21H111.436v21h3.349v-18Zm13.913,0h5.785v-3h-9.134v21h9.134v-3H128.7V56.137h4.6v-3h-4.6v-5.85Zm8.768,18h8.769v2.82h3.258v-5.76h-1.462V44.286h-3.41v18h-3.806v-18h-3.349v21Zm30.6,0v-21h-3.349v18h-2.893v-18h-3.349v18H155.58v-18h-3.349v21h15.833Zm9.589-9.631,1.37-5.16V65.287h3.015v-21h-3.685l-2.74,8.671-1.218,4.62V44.286h-2.984v21h3.441Zm11.021,0.63h3.806v9h3.41v-21h-3.41v9h-3.806v-9h-3.35v21h3.35v-9Zm17.993-12h-4.9l-3.411,21h3.076l0.578-3.81h4.111l0.578,3.81h3.38Zm-2.619,3.72,1.614,10.621h-3.228Z" transform="translate(-54.969 -36.969)"/>
</svg>
