<svg xmlns="http://www.w3.org/2000/svg" width="16" height="16" viewBox="0 0 16 16">
  <defs>
    <style>
      .cls-1 {
        fill-rule: evenodd;
      }
    </style>
  </defs>
  <path id="ic_search" class="cls-1" d="M282.645,52.9l-3.3-3.3a6.76,6.76,0,0,0,.658-6.467,6.626,6.626,0,0,0-3.606-3.606,6.745,6.745,0,0,0-5.26,0,6.635,6.635,0,0,0-3.606,3.606,6.743,6.743,0,0,0,0,5.26,6.635,6.635,0,0,0,3.606,3.606,6.653,6.653,0,0,0,2.63.534,6.583,6.583,0,0,0,3.837-1.193l3.3,3.288a1.143,1.143,0,0,0,.866.366A1.23,1.23,0,0,0,282.645,52.9Zm-5.832-4.092a4.3,4.3,0,1,1,1.264-3.044A4.15,4.15,0,0,1,276.813,48.813Z" transform="translate(-267 -39)"/>
</svg>
