<svg xmlns="http://www.w3.org/2000/svg" width="26.844" height="26.969" viewBox="0 0 26.844 26.969">
  <defs>
    <style>
      .cls-1 {
        fill: #fff;
        fill-rule: evenodd;
      }
    </style>
  </defs>
  <path id="ic_call_white" class="cls-1" d="M384.821,156.312a1.309,1.309,0,0,1-.4,1.143l-3.781,3.773a2.15,2.15,0,0,1-.668.487,2.76,2.76,0,0,1-.811.257c-0.019,0-.075,0-0.17.014s-0.218.014-.37,0.014a13.019,13.019,0,0,1-1.748-.186,13.164,13.164,0,0,1-2.957-.914,24.747,24.747,0,0,1-3.966-2.187,29.645,29.645,0,0,1-4.719-4,31.31,31.31,0,0,1-3.3-3.773,26.994,26.994,0,0,1-2.1-3.33,17.947,17.947,0,0,1-1.194-2.773,14.829,14.829,0,0,1-.54-2.144,7.1,7.1,0,0,1-.114-1.415c0.019-.343.029-0.534,0.029-0.571a2.777,2.777,0,0,1,.255-0.815,2.14,2.14,0,0,1,.484-0.672l3.781-3.8a1.251,1.251,0,0,1,.91-0.4,1.053,1.053,0,0,1,.654.215,2,2,0,0,1,.483.528l3.042,5.8a1.4,1.4,0,0,1,.142,1,1.792,1.792,0,0,1-.483.914l-1.393,1.4a0.482,0.482,0,0,0-.1.186,0.719,0.719,0,0,0-.043.214,5.208,5.208,0,0,0,.512,1.372,12.578,12.578,0,0,0,1.052,1.672,18.538,18.538,0,0,0,2.019,2.273,18.883,18.883,0,0,0,2.274,2.044,13.264,13.264,0,0,0,1.663,1.072,4.4,4.4,0,0,0,1.024.414l0.355,0.071a0.691,0.691,0,0,0,.185-0.042,0.484,0.484,0,0,0,.185-0.1l1.62-1.659a1.739,1.739,0,0,1,1.194-.457,1.476,1.476,0,0,1,.768.172h0.028l5.487,3.258A1.442,1.442,0,0,1,384.821,156.312Z" transform="translate(-357.969 -135.031)"/>
</svg>
