<svg xmlns="http://www.w3.org/2000/svg" width="20" height="20" viewBox="0 0 20 20">
  <defs>
    <style>
      .cls-1 {
        fill: #d0d0d0;
        fill-rule: evenodd;
      }
    </style>
  </defs>
  <path id="ic_call_gray" class="cls-1" d="M337.99,151.784a0.967,0.967,0,0,1-.3.847l-2.816,2.8a1.59,1.59,0,0,1-.5.36,2.053,2.053,0,0,1-.6.191c-0.014,0-.057,0-0.127.01s-0.163.011-.276,0.011a9.743,9.743,0,0,1-1.3-.138,9.9,9.9,0,0,1-2.2-.678,18.419,18.419,0,0,1-2.953-1.621A22.009,22.009,0,0,1,323.4,150.6a23.216,23.216,0,0,1-2.456-2.8,20.046,20.046,0,0,1-1.567-2.469,13.305,13.305,0,0,1-.889-2.055,11.024,11.024,0,0,1-.4-1.589A5.222,5.222,0,0,1,318,140.64c0.014-.254.021-0.4,0.021-0.424a2.08,2.08,0,0,1,.191-0.6,1.59,1.59,0,0,1,.36-0.5l2.816-2.818a0.933,0.933,0,0,1,.677-0.3,0.788,0.788,0,0,1,.487.159,1.47,1.47,0,0,1,.36.392l2.266,4.3a1.033,1.033,0,0,1,.106.741,1.332,1.332,0,0,1-.36.678l-1.038,1.038a0.358,0.358,0,0,0-.074.138,0.535,0.535,0,0,0-.032.159,3.87,3.87,0,0,0,.381,1.017,9.382,9.382,0,0,0,.784,1.239,13.693,13.693,0,0,0,1.5,1.684,13.979,13.979,0,0,0,1.694,1.515,9.8,9.8,0,0,0,1.238.795,3.3,3.3,0,0,0,.763.307l0.264,0.053a0.521,0.521,0,0,0,.138-0.032,0.366,0.366,0,0,0,.138-0.074l1.206-1.229a1.3,1.3,0,0,1,.89-0.339,1.111,1.111,0,0,1,.571.127h0.021l4.087,2.416A1.062,1.062,0,0,1,337.99,151.784Z" transform="translate(-318 -136)"/>
</svg>
