<svg xmlns="http://www.w3.org/2000/svg" width="166.906" height="41" viewBox="0 0 166.906 41">
  <defs>
    <style>
      .cls-1 {
        fill-rule: evenodd;
      }
    </style>
  </defs>
  <path id="ic_logo_black" class="cls-1" d="M70.9,105.926a0.731,0.731,0,0,1,1-.271,0.745,0.745,0,0,1,.269,1.013,0.73,0.73,0,0,1-1,.271,0.745,0.745,0,0,1-.269-1.013h0Zm8.833,5.147a0.745,0.745,0,0,0-.269-1.013,0.731,0.731,0,0,0-1,.271,0.745,0.745,0,0,0,.269,1.013,0.731,0.731,0,0,0,1-.271h0Zm-4.416-7.72a0.742,0.742,0,1,1-.735.742,0.738,0.738,0,0,1,.735-0.742h0Zm0,10.293a0.742,0.742,0,1,0-.735-0.742,0.738,0.738,0,0,0,.735.742h0Zm4.416-7.72a0.731,0.731,0,0,0-1-.271,0.745,0.745,0,0,0-.269,1.013,0.73,0.73,0,0,0,1,.271,0.745,0.745,0,0,0,.269-1.013h0ZM70.9,111.073a0.745,0.745,0,0,1,.269-1.013,0.731,0.731,0,0,1,1,.271,0.745,0.745,0,0,1-.269,1.013,0.731,0.731,0,0,1-1-.271h0Zm1.468-2.573a2.949,2.949,0,1,1,2.949,2.975,2.962,2.962,0,0,1-2.949-2.975h0Zm4.223-5.864a5.931,5.931,0,0,1,3.133,1.834l4.077,0.749a9.16,9.16,0,0,0-4.844-5.12l-2.367,2.537h0Zm-6.406,2.829a5.99,5.99,0,0,1,2.7-2.443l1.964-3.677a9.031,9.031,0,0,0-6.32,3.066l1.659,3.054h0Zm0.687,7.022a6,6,0,0,1-1.468-3.342l-2.862-3.024a9.27,9.27,0,0,0,.937,7.015l3.393-.649h0Zm4.445,2.014a5.917,5.917,0,0,1-1.221-.126l-3.732,1.811a9.04,9.04,0,0,0,6.9,1.27L77.7,114a5.876,5.876,0,0,1-2.384.5h0Zm5.947-6a6.013,6.013,0,0,1-.787,2.986l0.554,4.141a9.177,9.177,0,0,0,3.328-6.23l-3.122-1.487q0.028,0.291.028,0.59h0Zm-16.615,0a10.669,10.669,0,1,1,10.668,10.766A10.718,10.718,0,0,1,64.645,108.5h0Zm-0.8,0a11.469,11.469,0,1,1,11.468,11.573A11.521,11.521,0,0,1,63.845,108.5h0ZM81.514,91.4c0.329,0.007.7-1.31,2.18-.683l0.153,0.075a1.932,1.932,0,0,0,.107-0.279,10.29,10.29,0,0,0-3.742-1.38c-0.172.452-.528,1.5-0.191,1.742a4.932,4.932,0,0,0,1.493.525h0Zm4.933,2.771c0.311,0.109,1.063-1.029,2.283.03l0.122,0.119a1.917,1.917,0,0,0,.187-0.233A10.359,10.359,0,0,0,85.9,91.6c-0.3.376-.963,1.266-0.715,1.6a4.979,4.979,0,0,0,1.259.965h0Zm3.844,4.174c0.263,0.2,1.326-.647,2.162.74l0.08,0.151a1.876,1.876,0,0,0,.249-0.163,10.446,10.446,0,0,0-2.224-3.336c-0.4.264-1.3,0.9-1.169,1.3a5.02,5.02,0,0,0,.9,1.311h0Zm2.377,5.168c0.188,0.273,1.459-.2,1.829,1.378l0.03,0.169a1.916,1.916,0,0,0,.287-0.077,10.525,10.525,0,0,0-1.094-3.867c-0.463.126-1.516,0.454-1.509,0.869a5.055,5.055,0,0,0,.457,1.528h0Zm0.712,4.061a5.063,5.063,0,0,0-.034,1.6c0.1,0.318,1.45.262,1.318,1.881l-0.023.169a1.859,1.859,0,0,0,.3.017,10.536,10.536,0,0,0,.144-4.018c-0.479-.026-1.581-0.042-1.7.355h0Zm-0.6,5.68a5.033,5.033,0,0,0-.521,1.507c-0.007.332,1.3,0.7,0.677,2.2l-0.074.154a1.88,1.88,0,0,0,.277.108,10.509,10.509,0,0,0,1.367-3.777c-0.448-.173-1.491-0.533-1.726-0.192h0Zm-2.31,5.215a5.012,5.012,0,0,0-.957,1.271c-0.108.314,1.02,1.072-.03,2.3l-0.118.124a1.926,1.926,0,0,0,.23.188,10.424,10.424,0,0,0,2.457-3.165c-0.373-.305-1.255-0.972-1.583-0.721h0ZM86.678,122.7a4.979,4.979,0,0,0-1.3.911c-0.2.265,0.642,1.338-.733,2.181l-0.15.081a1.868,1.868,0,0,0,.161.251,10.335,10.335,0,0,0,3.306-2.244c-0.261-.406-0.9-1.316-1.285-1.18h0Zm-6.42,3.31c-0.27.19,0.2,1.473-1.366,1.846l-0.167.03a1.923,1.923,0,0,0,.077.29,10.284,10.284,0,0,0,3.831-1.1c-0.124-.468-0.449-1.531-0.861-1.523a4.929,4.929,0,0,0-1.514.461h0Zm-5.605.685c-0.315.1-.261,1.463-1.864,1.33l-0.168-.024a1.928,1.928,0,0,0-.016.3,10.252,10.252,0,0,0,3.981.145c0.025-.483.041-1.6-0.352-1.716a4.936,4.936,0,0,0-1.581-.034h0Zm-5.541-1.1c-0.329-.007-0.7,1.31-2.18.683l-0.153-.075a1.925,1.925,0,0,0-.107.279,10.27,10.27,0,0,0,3.742,1.38c0.172-.452.528-1.5,0.191-1.742a4.947,4.947,0,0,0-1.493-.525h0Zm-4.933-2.771c-0.311-.109-1.063,1.029-2.283-0.03l-0.122-.119a1.853,1.853,0,0,0-.187.233,10.377,10.377,0,0,0,3.136,2.479c0.3-.377.963-1.267,0.715-1.6a4.961,4.961,0,0,0-1.259-.965h0Zm-3.844-4.174c-0.262-.2-1.326.647-2.162-0.74l-0.08-.151a1.817,1.817,0,0,0-.249.162,10.439,10.439,0,0,0,2.224,3.336c0.4-.263,1.3-0.9,1.169-1.3a5.023,5.023,0,0,0-.9-1.311h0Zm-2.377-5.168c-0.188-.273-1.459.2-1.829-1.378l-0.03-.169a1.912,1.912,0,0,0-.287.077,10.518,10.518,0,0,0,1.093,3.867c0.464-.126,1.517-0.453,1.509-0.869a5.052,5.052,0,0,0-.457-1.528h0Zm-0.679-5.657c-0.1-.317-1.45-0.262-1.318-1.881l0.023-.169a1.857,1.857,0,0,0-.3-0.016,10.533,10.533,0,0,0-.144,4.018c0.479,0.025,1.581.042,1.7-.356a5.066,5.066,0,0,0,.034-1.6h0Zm1.087-5.591c0.007-.332-1.3-0.7-0.677-2.2l0.074-.154a1.867,1.867,0,0,0-.277-0.108,10.505,10.505,0,0,0-1.367,3.776c0.448,0.173,1.491.533,1.727,0.192a5.039,5.039,0,0,0,.521-1.507h0Zm2.745-4.979c0.108-.314-1.02-1.073.03-2.3l0.118-.123a1.884,1.884,0,0,0-.23-0.189,10.432,10.432,0,0,0-2.457,3.165c0.373,0.3,1.255.972,1.583,0.721a5.011,5.011,0,0,0,.957-1.271h0Zm4.136-3.879c0.2-.265-0.642-1.338.733-2.182l0.15-.081a1.886,1.886,0,0,0-.162-0.251,10.346,10.346,0,0,0-3.305,2.244c0.261,0.406.9,1.316,1.285,1.18a4.974,4.974,0,0,0,1.3-.911h0Zm5.121-2.4c0.27-.19-0.2-1.473,1.366-1.846l0.167-.03a1.938,1.938,0,0,0-.077-0.29,10.276,10.276,0,0,0-3.831,1.1c0.124,0.468.449,1.53,0.861,1.523a4.939,4.939,0,0,0,1.514-.461h0Zm5.605-.685c0.315-.1.26-1.463,1.864-1.329l0.168,0.024a1.928,1.928,0,0,0,.016-0.3,10.258,10.258,0,0,0-3.981-.145c-0.025.484-.041,1.6,0.352,1.717a4.927,4.927,0,0,0,1.581.033h0Zm16.56,9.368q0.3,0.59.557,1.2c0.233-.076.459-0.134,0.64-0.181a0.2,0.2,0,0,1,.148.019,0.191,0.191,0,0,1,.066.058l0.086,0.082a10.215,10.215,0,0,1,1.18,4.253l0,0.05a0.2,0.2,0,0,1-.076.123,0.2,0.2,0,0,1-.078.037,1.446,1.446,0,0,1-.659.158q0.1,0.653.158,1.318c0.246,0,.48.016,0.668,0.028a0.2,0.2,0,0,1,.136.064,0.2,0.2,0,0,1,.045.075l0.057,0.105a10.235,10.235,0,0,1-.18,4.413l-0.019.047a0.2,0.2,0,0,1-.11.093,0.191,0.191,0,0,1-.086.01,1.433,1.433,0,0,1-.676-0.055q-0.1.66-.25,1.305c0.233,0.076.45,0.163,0.624,0.233a0.2,0.2,0,0,1,.129.189l0.022,0.117a10.2,10.2,0,0,1-1.522,4.142l-0.032.038a0.2,0.2,0,0,1-.133.055,0.224,0.224,0,0,1-.085-0.017,1.455,1.455,0,0,1-.625-0.263q-0.3.592-.639,1.161c0.2,0.145.378,0.3,0.523,0.418a0.2,0.2,0,0,1,.073.131,0.2,0.2,0,0,1-.008.088l-0.015.119a10.139,10.139,0,0,1-2.716,3.464l-0.042.026a0.2,0.2,0,0,1-.144.01,0.189,0.189,0,0,1-.075-0.042,1.458,1.458,0,0,1-.516-0.448q-0.466.469-.963,0.906c0.145,0.2.27,0.4,0.371,0.563a0.2,0.2,0,0,1,.029.148,0.206,0.206,0,0,1-.035.081l-0.05.108a10.052,10.052,0,0,1-3.644,2.447l-0.048.012a0.2,0.2,0,0,1-.2-0.1,1.467,1.467,0,0,1-.353-0.582c-0.39.2-.788,0.388-1.192,0.561,0.076,0.235.133,0.463,0.179,0.646a0.2,0.2,0,0,1-.018.15,0.214,0.214,0,0,1-.058.067l-0.081.087a9.993,9.993,0,0,1-4.215,1.191l-0.05,0a0.2,0.2,0,0,1-.158-0.156,1.479,1.479,0,0,1-.157-0.665q-0.646.1-1.306,0.16c0,0.248-.015.484-0.028,0.674a0.2,0.2,0,0,1-.063.137,0.2,0.2,0,0,1-.075.045l-0.1.057a9.958,9.958,0,0,1-4.373-.181l-0.046-.019a0.2,0.2,0,0,1-.1-0.2,1.48,1.48,0,0,1,.054-0.682q-0.654-.1-1.292-0.253c-0.076.236-.162,0.454-0.232,0.63a0.2,0.2,0,0,1-.1.11,0.207,0.207,0,0,1-.085.02l-0.116.022a10.006,10.006,0,0,1-4.1-1.536L66.3,126.71a0.207,0.207,0,0,1-.054-0.135,0.2,0.2,0,0,1,.017-0.085,1.482,1.482,0,0,1,.26-0.631q-0.587-.3-1.15-0.645c-0.144.2-.294,0.382-0.414,0.528a0.2,0.2,0,0,1-.218.065l-0.117-.015a10.062,10.062,0,0,1-3.432-2.741l-0.026-.042a0.207,0.207,0,0,1-.01-0.145,0.2,0.2,0,0,1,.042-0.076,1.464,1.464,0,0,1,.444-0.521q-0.465-.47-0.9-0.972c-0.2.147-.4,0.273-0.557,0.375a0.2,0.2,0,0,1-.147.029,0.2,0.2,0,0,1-.08-0.035l-0.107-.051a10.145,10.145,0,0,1-2.425-3.677l-0.012-.049a0.207,0.207,0,0,1,.035-0.141,0.214,0.214,0,0,1,.063-0.059,1.469,1.469,0,0,1,.578-0.356q-0.3-.59-0.557-1.2c-0.233.077-.459,0.134-0.64,0.181a0.2,0.2,0,0,1-.148-0.018,0.206,0.206,0,0,1-.066-0.059l-0.086-.081a10.224,10.224,0,0,1-1.18-4.254l0-.05a0.2,0.2,0,0,1,.076-0.123,0.188,0.188,0,0,1,.078-0.036,1.447,1.447,0,0,1,.66-0.159q-0.1-.653-0.158-1.318c-0.246,0-.48-0.015-0.668-0.028a0.2,0.2,0,0,1-.136-0.063,0.206,0.206,0,0,1-.045-0.076l-0.057-.105a10.235,10.235,0,0,1,.18-4.413l0.019-.047a0.2,0.2,0,0,1,.11-0.093,0.191,0.191,0,0,1,.085-0.01,1.433,1.433,0,0,1,.676.055q0.1-.66.25-1.3c-0.233-.077-0.45-0.164-0.624-0.234a0.2,0.2,0,0,1-.109-0.1,0.2,0.2,0,0,1-.019-0.086l-0.022-.117a10.207,10.207,0,0,1,1.523-4.142l0.032-.038a0.2,0.2,0,0,1,.134-0.055,0.2,0.2,0,0,1,.084.017,1.455,1.455,0,0,1,.625.262q0.3-.592.639-1.16c-0.2-.145-0.378-0.3-0.523-0.418a0.2,0.2,0,0,1-.065-0.22l0.015-.118a10.132,10.132,0,0,1,2.716-3.464l0.042-.027a0.2,0.2,0,0,1,.219.032,1.452,1.452,0,0,1,.516.448q0.466-.469.963-0.906c-0.145-.2-0.27-0.4-0.371-0.563a0.2,0.2,0,0,1-.029-0.148,0.2,0.2,0,0,1,.035-0.081l0.05-.108a10.047,10.047,0,0,1,3.644-2.447l0.048-.012a0.2,0.2,0,0,1,.14.035,0.2,0.2,0,0,1,.058.064,1.473,1.473,0,0,1,.353.583q0.585-.3,1.192-0.562c-0.076-.235-0.133-0.463-0.179-0.646a0.2,0.2,0,0,1,.018-0.15,0.206,0.206,0,0,1,.058-0.066l0.081-.087a9.985,9.985,0,0,1,4.215-1.191l0.05,0a0.2,0.2,0,0,1,.122.077,0.206,0.206,0,0,1,.036.079,1.481,1.481,0,0,1,.157.666q0.646-.1,1.306-0.16c0-.248.015-0.485,0.028-0.674a0.2,0.2,0,0,1,.063-0.137,0.2,0.2,0,0,1,.075-0.046l0.1-.057a9.964,9.964,0,0,1,4.373.181l0.046,0.019a0.2,0.2,0,0,1,.1.2,1.483,1.483,0,0,1-.054.682q0.654,0.1,1.292.252c0.076-.235.162-0.454,0.232-0.629a0.2,0.2,0,0,1,.187-0.13l0.116-.022a10,10,0,0,1,4.1,1.536l0.038,0.032a0.2,0.2,0,0,1,.037.22,1.479,1.479,0,0,1-.26.63q0.587,0.3,1.15.645c0.144-.2.294-0.382,0.414-0.528a0.2,0.2,0,0,1,.13-0.073,0.2,0.2,0,0,1,.087.008L86,91.207a10.07,10.07,0,0,1,3.432,2.741l0.026,0.043a0.2,0.2,0,0,1-.032.221,1.46,1.46,0,0,1-.444.521q0.465,0.47.9,0.971c0.2-.147.4-0.273,0.557-0.374a0.2,0.2,0,0,1,.147-0.029,0.208,0.208,0,0,1,.081.035l0.107,0.051A10.155,10.155,0,0,1,93.2,99.063l0.012,0.049a0.206,0.206,0,0,1-.035.141,0.2,0.2,0,0,1-.063.059,1.454,1.454,0,0,1-.578.356h0Zm23.229,10.221v3.1c0,1.551-.679,2.11-1.759,2.11s-1.758-.559-1.758-2.11V101.264c0-1.551.679-2.14,1.758-2.14s1.759,0.59,1.759,2.14v2.327h3.208v-2.109c0-3.475-1.728-5.461-5.059-5.461s-5.059,1.986-5.059,5.461v11.292c0,3.474,1.727,5.46,5.059,5.46s5.059-1.986,5.059-5.46v-2.885h-3.208Zm9.594-10.517h3.856v18.614h3.455V96.27h-10.7v21.716h3.393V99.372Zm14.1,0h5.861v-3.1h-9.254v21.716h9.254v-3.1h-5.861v-6.36h4.658v-3.1h-4.658V99.372Zm8.886,18.614h8.884V120.9h3.3v-5.956h-1.481V96.27H155.59v18.614h-3.856V96.27h-3.393v21.716Zm31,0V96.27h-3.393v18.614H173.02V96.27h-3.393v18.614H166.7V96.27H163.3v21.716h16.041Zm9.719-9.959,1.389-5.336v15.3h3.053V96.27h-3.732L187,105.235l-1.234,4.778V96.27H182.74v21.716h3.485Zm11.169,0.652h3.856v9.307h3.455V96.27h-3.455v9.306h-3.856V96.27h-3.394v21.716h3.394v-9.307ZM218.464,96.27H213.5l-3.455,21.716h3.115l0.586-3.94h4.165l0.586,3.94h3.424Zm-2.653,3.846,1.635,10.983h-3.27Z" transform="translate(-55 -88)"/>
</svg>
